<mxfile host="app.diagrams.net" modified="2023-12-19T15:34:30.657Z" agent="Mozilla/5.0 (Windows NT 10.0; Win64; x64) AppleWebKit/537.36 (KHTML, like Gecko) Chrome/120.0.0.0 Safari/537.36" etag="42VcUOB6-eS5mOWkdY9u" version="22.1.11" type="device">
  <diagram name="第 1 页" id="9tUkcY7QYSIxVsqNPHyZ">
    <mxGraphModel dx="3088" dy="1915" grid="1" gridSize="10" guides="1" tooltips="1" connect="1" arrows="1" fold="1" page="1" pageScale="1" pageWidth="827" pageHeight="1169" math="0" shadow="0">
      <root>
        <mxCell id="0" />
        <mxCell id="1" parent="0" />
        <mxCell id="L3Q9w8ff7Nn1j28YqtRG-43" value="&lt;font style=&quot;font-size: 14px;&quot;&gt;Patient&lt;/font&gt;" style="swimlane;fontStyle=1;align=center;verticalAlign=top;childLayout=stackLayout;horizontal=1;startSize=30;horizontalStack=0;resizeParent=1;resizeParentMax=0;resizeLast=0;collapsible=0;marginBottom=0;html=1;whiteSpace=wrap;" parent="1" vertex="1">
          <mxGeometry x="-1190" y="-910" width="340" height="1630" as="geometry" />
        </mxCell>
        <mxCell id="L3Q9w8ff7Nn1j28YqtRG-44" value="&lt;span style=&quot;font-size: 14px;&quot;&gt;Billing System&lt;/span&gt;" style="swimlane;fontStyle=1;align=center;verticalAlign=top;childLayout=stackLayout;horizontal=1;startSize=30;horizontalStack=0;resizeParent=1;resizeParentMax=0;resizeLast=0;collapsible=0;marginBottom=0;html=1;whiteSpace=wrap;" parent="1" vertex="1">
          <mxGeometry x="-740" y="-910" width="434" height="1250" as="geometry" />
        </mxCell>
        <mxCell id="dSZwk_qAHh2OTDDEfBdo-151" value="Retrieve Bills" style="whiteSpace=wrap;strokeWidth=2;rounded=1;" vertex="1" parent="1">
          <mxGeometry x="-587" y="-660" width="110" height="34" as="geometry" />
        </mxCell>
        <mxCell id="dSZwk_qAHh2OTDDEfBdo-152" value="Authenticate Patient" style="rounded=1;absoluteArcSize=1;arcSize=14;whiteSpace=wrap;strokeWidth=2;" vertex="1" parent="1">
          <mxGeometry x="-615" y="-750" width="166" height="34" as="geometry" />
        </mxCell>
        <mxCell id="dSZwk_qAHh2OTDDEfBdo-153" value="Display Bill Details" style="whiteSpace=wrap;strokeWidth=2;rounded=1;" vertex="1" parent="1">
          <mxGeometry x="-606" y="-508" width="148" height="34" as="geometry" />
        </mxCell>
        <mxCell id="dSZwk_qAHh2OTDDEfBdo-154" value="Process Payment" style="whiteSpace=wrap;strokeWidth=2;rounded=1;" vertex="1" parent="1">
          <mxGeometry x="-606" y="-424" width="135" height="34" as="geometry" />
        </mxCell>
        <mxCell id="dSZwk_qAHh2OTDDEfBdo-155" value="Generate Receipt" style="whiteSpace=wrap;strokeWidth=2;rounded=1;" vertex="1" parent="1">
          <mxGeometry x="-550" y="-88" width="141" height="34" as="geometry" />
        </mxCell>
        <mxCell id="dSZwk_qAHh2OTDDEfBdo-156" value="Notify Payment Failure" style="whiteSpace=wrap;strokeWidth=2;rounded=1;" vertex="1" parent="1">
          <mxGeometry x="-710" y="-271" width="141" height="34" as="geometry" />
        </mxCell>
        <mxCell id="dSZwk_qAHh2OTDDEfBdo-158" value="Inform Patient to Retry" style="whiteSpace=wrap;strokeWidth=2;rounded=1;" vertex="1" parent="1">
          <mxGeometry x="-710" y="-128" width="152" height="34" as="geometry" />
        </mxCell>
        <mxCell id="dSZwk_qAHh2OTDDEfBdo-160" value="View Bills" style="whiteSpace=wrap;strokeWidth=2;rounded=1;" vertex="1" parent="1">
          <mxGeometry x="-1067" y="-660" width="85" height="34" as="geometry" />
        </mxCell>
        <mxCell id="dSZwk_qAHh2OTDDEfBdo-161" value="Login" style="rounded=1;absoluteArcSize=1;arcSize=14;whiteSpace=wrap;strokeWidth=2;" vertex="1" parent="1">
          <mxGeometry x="-1046.5" y="-750" width="53" height="34" as="geometry" />
        </mxCell>
        <mxCell id="dSZwk_qAHh2OTDDEfBdo-162" value="Select Bill" style="whiteSpace=wrap;strokeWidth=2;rounded=1;" vertex="1" parent="1">
          <mxGeometry x="-1067" y="-530" width="87" height="34" as="geometry" />
        </mxCell>
        <mxCell id="dSZwk_qAHh2OTDDEfBdo-163" value="Make Payment" style="whiteSpace=wrap;strokeWidth=2;rounded=1;" vertex="1" parent="1">
          <mxGeometry x="-984.5" y="-153" width="120" height="34" as="geometry" />
        </mxCell>
        <mxCell id="dSZwk_qAHh2OTDDEfBdo-164" value="Confirm Payment?" style="rhombus;strokeWidth=2;whiteSpace=wrap;" vertex="1" parent="1">
          <mxGeometry x="-1032.5" y="-20" width="90" height="90" as="geometry" />
        </mxCell>
        <mxCell id="dSZwk_qAHh2OTDDEfBdo-165" value="Payment Successful" style="whiteSpace=wrap;strokeWidth=2;" vertex="1" parent="1">
          <mxGeometry x="-1056" y="140.27" width="155" height="34" as="geometry" />
        </mxCell>
        <mxCell id="dSZwk_qAHh2OTDDEfBdo-169" value="Payment Error" style="whiteSpace=wrap;strokeWidth=2;rounded=1;" vertex="1" parent="1">
          <mxGeometry x="-1106.5" y="-370" width="118" height="34" as="geometry" />
        </mxCell>
        <mxCell id="dSZwk_qAHh2OTDDEfBdo-170" value="Retry Payment" style="whiteSpace=wrap;strokeWidth=2;rounded=1;" vertex="1" parent="1">
          <mxGeometry x="-1031.5" y="-256" width="120" height="34" as="geometry" />
        </mxCell>
        <mxCell id="dSZwk_qAHh2OTDDEfBdo-171" value="" style="startArrow=none;endArrow=block;exitX=0.4232244637241691;exitY=1;entryX=0.49974724264705883;entryY=0;rounded=0;" edge="1" parent="1" source="dSZwk_qAHh2OTDDEfBdo-161" target="dSZwk_qAHh2OTDDEfBdo-160">
          <mxGeometry relative="1" as="geometry" />
        </mxCell>
        <mxCell id="dSZwk_qAHh2OTDDEfBdo-172" value="" style="curved=1;startArrow=none;endArrow=block;exitX=0.49974724264705883;exitY=1;entryX=0.49975305316091956;entryY=0;rounded=0;" edge="1" parent="1" source="dSZwk_qAHh2OTDDEfBdo-160" target="dSZwk_qAHh2OTDDEfBdo-162">
          <mxGeometry relative="1" as="geometry">
            <Array as="points" />
          </mxGeometry>
        </mxCell>
        <mxCell id="dSZwk_qAHh2OTDDEfBdo-173" value="" style="startArrow=none;endArrow=block;exitX=0.75;exitY=1;entryX=1;entryY=0;rounded=0;entryDx=0;entryDy=0;exitDx=0;exitDy=0;" edge="1" parent="1" source="dSZwk_qAHh2OTDDEfBdo-162" target="dSZwk_qAHh2OTDDEfBdo-163">
          <mxGeometry relative="1" as="geometry" />
        </mxCell>
        <mxCell id="dSZwk_qAHh2OTDDEfBdo-174" value="" style="startArrow=none;endArrow=block;exitX=0.5000651041666667;exitY=1;entryX=0.7112883637109264;entryY=0;rounded=0;" edge="1" parent="1" source="dSZwk_qAHh2OTDDEfBdo-163" target="dSZwk_qAHh2OTDDEfBdo-164">
          <mxGeometry relative="1" as="geometry" />
        </mxCell>
        <mxCell id="dSZwk_qAHh2OTDDEfBdo-175" value="Yes" style="curved=1;startArrow=none;endArrow=block;exitX=0.5;exitY=1;entryX=0.5002394153225806;entryY=0.007582720588235294;rounded=0;exitDx=0;exitDy=0;" edge="1" parent="1" source="dSZwk_qAHh2OTDDEfBdo-164" target="dSZwk_qAHh2OTDDEfBdo-165">
          <mxGeometry relative="1" as="geometry">
            <Array as="points" />
            <mxPoint x="-967.2308319738991" y="10.000831973898833" as="sourcePoint" />
          </mxGeometry>
        </mxCell>
        <mxCell id="dSZwk_qAHh2OTDDEfBdo-179" value="No" style="startArrow=none;endArrow=block;exitX=0.08647567777477652;exitY=0;entryX=0.36776665603916403;entryY=1;rounded=0;" edge="1" parent="1" source="dSZwk_qAHh2OTDDEfBdo-164" target="dSZwk_qAHh2OTDDEfBdo-169">
          <mxGeometry relative="1" as="geometry">
            <Array as="points">
              <mxPoint x="-1152.5" y="-260" />
            </Array>
          </mxGeometry>
        </mxCell>
        <mxCell id="dSZwk_qAHh2OTDDEfBdo-180" value="" style="startArrow=none;endArrow=block;exitX=0.633358873621853;exitY=1;entryX=0.496142578125;entryY=0;rounded=0;" edge="1" parent="1" source="dSZwk_qAHh2OTDDEfBdo-169" target="dSZwk_qAHh2OTDDEfBdo-170">
          <mxGeometry relative="1" as="geometry" />
        </mxCell>
        <mxCell id="dSZwk_qAHh2OTDDEfBdo-181" value="" style="startArrow=none;endArrow=block;exitX=0.496142578125;exitY=1;entryX=0.36948226385517796;entryY=0;rounded=0;" edge="1" parent="1" source="dSZwk_qAHh2OTDDEfBdo-170" target="dSZwk_qAHh2OTDDEfBdo-163">
          <mxGeometry relative="1" as="geometry" />
        </mxCell>
        <mxCell id="dSZwk_qAHh2OTDDEfBdo-182" value="" style="curved=1;startArrow=none;endArrow=block;exitX=0.4994587725903614;exitY=1;entryX=0.49918323863636366;entryY=0;rounded=0;" edge="1" parent="1" source="dSZwk_qAHh2OTDDEfBdo-152" target="dSZwk_qAHh2OTDDEfBdo-151">
          <mxGeometry relative="1" as="geometry">
            <Array as="points" />
          </mxGeometry>
        </mxCell>
        <mxCell id="dSZwk_qAHh2OTDDEfBdo-183" value="" style="startArrow=none;endArrow=block;exitX=0.5359797754329003;exitY=1;entryX=0.49939294763513514;entryY=0;rounded=0;" edge="1" parent="1" source="dSZwk_qAHh2OTDDEfBdo-151" target="dSZwk_qAHh2OTDDEfBdo-153">
          <mxGeometry relative="1" as="geometry" />
        </mxCell>
        <mxCell id="dSZwk_qAHh2OTDDEfBdo-184" value="" style="curved=1;startArrow=none;endArrow=block;exitX=0.49939294763513514;exitY=1;entryX=0.49563078703703706;entryY=0;rounded=0;" edge="1" parent="1" source="dSZwk_qAHh2OTDDEfBdo-153" target="dSZwk_qAHh2OTDDEfBdo-154">
          <mxGeometry relative="1" as="geometry">
            <Array as="points" />
          </mxGeometry>
        </mxCell>
        <mxCell id="dSZwk_qAHh2OTDDEfBdo-185" value="Payment Processed" style="startArrow=none;endArrow=block;exitX=0.467;exitY=0.9;entryX=0.4982546542553192;entryY=0.003791360294117647;rounded=0;exitDx=0;exitDy=0;exitPerimeter=0;" edge="1" parent="1" source="dSZwk_qAHh2OTDDEfBdo-290" target="dSZwk_qAHh2OTDDEfBdo-155">
          <mxGeometry relative="1" as="geometry" />
        </mxCell>
        <mxCell id="dSZwk_qAHh2OTDDEfBdo-186" value="Payment Failed" style="startArrow=none;endArrow=block;exitX=0.117;exitY=0.567;entryX=0.49995659722222224;entryY=0;rounded=0;exitDx=0;exitDy=0;exitPerimeter=0;" edge="1" parent="1" source="dSZwk_qAHh2OTDDEfBdo-290" target="dSZwk_qAHh2OTDDEfBdo-156">
          <mxGeometry relative="1" as="geometry" />
        </mxCell>
        <mxCell id="dSZwk_qAHh2OTDDEfBdo-188" value="" style="startArrow=none;endArrow=block;exitX=0.5224433697089946;exitY=1;entryX=0.4999570741758242;entryY=0;rounded=0;" edge="1" parent="1" source="dSZwk_qAHh2OTDDEfBdo-156" target="dSZwk_qAHh2OTDDEfBdo-158">
          <mxGeometry relative="1" as="geometry" />
        </mxCell>
        <mxCell id="dSZwk_qAHh2OTDDEfBdo-189" value="" style="startArrow=none;endArrow=block;exitX=1;exitY=0.5;entryX=0;entryY=0.5;rounded=0;exitDx=0;exitDy=0;entryDx=0;entryDy=0;" edge="1" parent="1" source="dSZwk_qAHh2OTDDEfBdo-161" target="dSZwk_qAHh2OTDDEfBdo-152">
          <mxGeometry relative="1" as="geometry" />
        </mxCell>
        <mxCell id="dSZwk_qAHh2OTDDEfBdo-190" value="" style="startArrow=none;endArrow=block;exitX=0;exitY=0.5;entryX=1;entryY=0.5;rounded=0;exitDx=0;exitDy=0;entryDx=0;entryDy=0;" edge="1" parent="1" source="dSZwk_qAHh2OTDDEfBdo-151" target="dSZwk_qAHh2OTDDEfBdo-160">
          <mxGeometry relative="1" as="geometry" />
        </mxCell>
        <mxCell id="dSZwk_qAHh2OTDDEfBdo-191" value="" style="startArrow=none;endArrow=block;exitX=1;exitY=0.75;entryX=0;entryY=0.25;rounded=0;entryDx=0;entryDy=0;exitDx=0;exitDy=0;" edge="1" parent="1" source="dSZwk_qAHh2OTDDEfBdo-162" target="dSZwk_qAHh2OTDDEfBdo-153">
          <mxGeometry relative="1" as="geometry" />
        </mxCell>
        <mxCell id="dSZwk_qAHh2OTDDEfBdo-192" value="" style="startArrow=none;endArrow=block;exitX=0.9983723958333334;exitY=0.29823077431009054;entryX=0.49563078703703706;entryY=1;rounded=0;edgeStyle=orthogonalEdgeStyle;" edge="1" parent="1" source="dSZwk_qAHh2OTDDEfBdo-163" target="dSZwk_qAHh2OTDDEfBdo-154">
          <mxGeometry relative="1" as="geometry" />
        </mxCell>
        <mxCell id="dSZwk_qAHh2OTDDEfBdo-193" value="" style="startArrow=none;endArrow=block;exitX=0.3421292548443597;exitY=1.0037913602941178;entryX=1.0002394153225806;entryY=0.23112898862790215;rounded=0;" edge="1" parent="1" source="dSZwk_qAHh2OTDDEfBdo-155" target="dSZwk_qAHh2OTDDEfBdo-165">
          <mxGeometry relative="1" as="geometry" />
        </mxCell>
        <mxCell id="dSZwk_qAHh2OTDDEfBdo-194" value="" style="startArrow=none;endArrow=block;exitX=0.183;exitY=-0.059;entryX=1.0004634533898304;entryY=0.2947191752024744;rounded=0;exitDx=0;exitDy=0;exitPerimeter=0;" edge="1" parent="1" source="dSZwk_qAHh2OTDDEfBdo-156" target="dSZwk_qAHh2OTDDEfBdo-169">
          <mxGeometry relative="1" as="geometry" />
        </mxCell>
        <mxCell id="dSZwk_qAHh2OTDDEfBdo-242" value="View Billing Statement" style="rounded=1;absoluteArcSize=1;arcSize=14;whiteSpace=wrap;strokeWidth=2;" vertex="1" parent="1">
          <mxGeometry x="-1068" y="242.27" width="180" height="34" as="geometry" />
        </mxCell>
        <mxCell id="dSZwk_qAHh2OTDDEfBdo-243" value="Review Insurance Claims" style="rounded=1;absoluteArcSize=1;arcSize=14;whiteSpace=wrap;strokeWidth=2;" vertex="1" parent="1">
          <mxGeometry x="-1092" y="389" width="191" height="34" as="geometry" />
        </mxCell>
        <mxCell id="dSZwk_qAHh2OTDDEfBdo-244" value="Receive Notifications" style="rounded=1;absoluteArcSize=1;arcSize=14;whiteSpace=wrap;strokeWidth=2;" vertex="1" parent="1">
          <mxGeometry x="-1082" y="474" width="167" height="34" as="geometry" />
        </mxCell>
        <mxCell id="dSZwk_qAHh2OTDDEfBdo-253" value="Notifications System" style="whiteSpace=wrap;strokeWidth=2;rounded=1;" vertex="1" parent="1">
          <mxGeometry x="-1021" y="577" width="161" height="34" as="geometry" />
        </mxCell>
        <mxCell id="dSZwk_qAHh2OTDDEfBdo-262" value="View billing statement" style="startArrow=none;endArrow=block;exitX=0.5;exitY=1;entryX=0.49838324652777777;entryY=0.013556985294117647;rounded=0;exitDx=0;exitDy=0;" edge="1" parent="1" source="dSZwk_qAHh2OTDDEfBdo-165" target="dSZwk_qAHh2OTDDEfBdo-242">
          <mxGeometry relative="1" as="geometry">
            <mxPoint x="-905.9347451184813" y="209.27" as="sourcePoint" />
          </mxGeometry>
        </mxCell>
        <mxCell id="dSZwk_qAHh2OTDDEfBdo-263" value="Review insurance claims" style="startArrow=none;endArrow=block;exitX=0.433;exitY=1.11;entryX=0.500715804973822;entryY=0.013556985294117647;rounded=0;exitDx=0;exitDy=0;exitPerimeter=0;" edge="1" parent="1" source="dSZwk_qAHh2OTDDEfBdo-242" target="dSZwk_qAHh2OTDDEfBdo-243">
          <mxGeometry relative="1" as="geometry">
            <mxPoint x="-912.8366814361116" y="320" as="sourcePoint" />
          </mxGeometry>
        </mxCell>
        <mxCell id="dSZwk_qAHh2OTDDEfBdo-264" value="Receive notifications" style="startArrow=none;endArrow=block;exitX=0.5;exitY=1;entryX=0.4991813248502994;entryY=0.013556985294117647;rounded=0;exitDx=0;exitDy=0;" edge="1" parent="1" source="dSZwk_qAHh2OTDDEfBdo-243" target="dSZwk_qAHh2OTDDEfBdo-244">
          <mxGeometry relative="1" as="geometry">
            <mxPoint x="-920.4138268065421" y="470" as="sourcePoint" />
          </mxGeometry>
        </mxCell>
        <mxCell id="dSZwk_qAHh2OTDDEfBdo-265" value="" style="startArrow=none;endArrow=block;exitX=0.38480706971978373;exitY=1.0135569852941178;entryX=0;entryY=0;rounded=0;entryDx=0;entryDy=0;" edge="1" parent="1" source="dSZwk_qAHh2OTDDEfBdo-244" target="dSZwk_qAHh2OTDDEfBdo-302">
          <mxGeometry relative="1" as="geometry">
            <Array as="points">
              <mxPoint x="-1092" y="582" />
            </Array>
            <mxPoint x="-1019" y="663.6723791201525" as="targetPoint" />
          </mxGeometry>
        </mxCell>
        <mxCell id="dSZwk_qAHh2OTDDEfBdo-273" value="" style="startArrow=none;endArrow=block;exitX=0.6135555799808151;exitY=1.0135569852941178;entryX=0.4983016304347826;entryY=0.013556985294117647;rounded=0;" edge="1" parent="1" source="dSZwk_qAHh2OTDDEfBdo-244" target="dSZwk_qAHh2OTDDEfBdo-253">
          <mxGeometry relative="1" as="geometry" />
        </mxCell>
        <mxCell id="dSZwk_qAHh2OTDDEfBdo-281" value="" style="startArrow=none;endArrow=block;exitX=0.4983016304347826;exitY=1.0135569852941178;entryX=0.8;entryY=-0.1;rounded=0;entryDx=0;entryDy=0;entryPerimeter=0;" edge="1" parent="1" source="dSZwk_qAHh2OTDDEfBdo-253" target="dSZwk_qAHh2OTDDEfBdo-302">
          <mxGeometry relative="1" as="geometry">
            <mxPoint x="-978" y="663.4814532755704" as="targetPoint" />
          </mxGeometry>
        </mxCell>
        <mxCell id="dSZwk_qAHh2OTDDEfBdo-284" value="Patient logs in" style="curved=1;startArrow=none;endArrow=block;exitX=0.5;exitY=1;entryX=0.5;entryY=0;rounded=0;exitDx=0;exitDy=0;entryDx=0;entryDy=0;" edge="1" parent="1" source="dSZwk_qAHh2OTDDEfBdo-285" target="dSZwk_qAHh2OTDDEfBdo-161">
          <mxGeometry relative="1" as="geometry">
            <Array as="points" />
            <mxPoint x="-1020.19921875" y="-1016" as="sourcePoint" />
            <mxPoint x="-1020.5" y="-947" as="targetPoint" />
          </mxGeometry>
        </mxCell>
        <mxCell id="dSZwk_qAHh2OTDDEfBdo-285" value="" style="ellipse;fillColor=strokeColor;html=1;" vertex="1" parent="1">
          <mxGeometry x="-1035" y="-850" width="30" height="30" as="geometry" />
        </mxCell>
        <mxCell id="dSZwk_qAHh2OTDDEfBdo-286" value="Payment Form" style="whiteSpace=wrap;strokeWidth=2;" vertex="1" parent="1">
          <mxGeometry x="-840" width="96" height="34" as="geometry" />
        </mxCell>
        <mxCell id="dSZwk_qAHh2OTDDEfBdo-290" value="" style="rhombus;whiteSpace=wrap;html=1;" vertex="1" parent="1">
          <mxGeometry x="-509.5" y="-363" width="60" height="60" as="geometry" />
        </mxCell>
        <mxCell id="dSZwk_qAHh2OTDDEfBdo-291" value="" style="endArrow=classic;html=1;rounded=0;exitX=0.956;exitY=1.088;exitDx=0;exitDy=0;exitPerimeter=0;entryX=0.5;entryY=0;entryDx=0;entryDy=0;" edge="1" parent="1" source="dSZwk_qAHh2OTDDEfBdo-154" target="dSZwk_qAHh2OTDDEfBdo-290">
          <mxGeometry width="50" height="50" relative="1" as="geometry">
            <mxPoint x="-400" y="-198" as="sourcePoint" />
            <mxPoint x="-350" y="-248" as="targetPoint" />
          </mxGeometry>
        </mxCell>
        <mxCell id="dSZwk_qAHh2OTDDEfBdo-292" value="Bill Form" style="rounded=0;absoluteArcSize=1;arcSize=14;whiteSpace=wrap;strokeWidth=2;" vertex="1" parent="1">
          <mxGeometry x="-840" y="-350" width="79" height="34" as="geometry" />
        </mxCell>
        <mxCell id="dSZwk_qAHh2OTDDEfBdo-293" value="" style="endArrow=classic;html=1;rounded=0;exitX=0.93;exitY=0.029;exitDx=0;exitDy=0;entryX=0;entryY=0.75;entryDx=0;entryDy=0;dashed=1;exitPerimeter=0;" edge="1" parent="1" source="dSZwk_qAHh2OTDDEfBdo-292" target="dSZwk_qAHh2OTDDEfBdo-153">
          <mxGeometry width="50" height="50" relative="1" as="geometry">
            <mxPoint x="-660" y="-490" as="sourcePoint" />
            <mxPoint x="-610" y="-540" as="targetPoint" />
          </mxGeometry>
        </mxCell>
        <mxCell id="dSZwk_qAHh2OTDDEfBdo-295" value="Payment Status" style="whiteSpace=wrap;strokeWidth=2;rounded=1;" vertex="1" parent="1">
          <mxGeometry x="-539" y="40" width="126" height="34" as="geometry" />
        </mxCell>
        <mxCell id="dSZwk_qAHh2OTDDEfBdo-296" value="Update payment status" style="curved=1;startArrow=none;endArrow=block;exitX=0.5;exitY=1;entryX=0.4974578373015873;entryY=0.013556985294117647;rounded=0;exitDx=0;exitDy=0;" edge="1" parent="1" target="dSZwk_qAHh2OTDDEfBdo-295" source="dSZwk_qAHh2OTDDEfBdo-155">
          <mxGeometry relative="1" as="geometry">
            <Array as="points" />
            <mxPoint x="-518" y="62" as="sourcePoint" />
          </mxGeometry>
        </mxCell>
        <mxCell id="dSZwk_qAHh2OTDDEfBdo-297" value="" style="startArrow=none;endArrow=block;entryX=1;entryY=0.5;rounded=0;entryDx=0;entryDy=0;exitX=0;exitY=0.5;exitDx=0;exitDy=0;dashed=1;" edge="1" parent="1" source="dSZwk_qAHh2OTDDEfBdo-295" target="dSZwk_qAHh2OTDDEfBdo-286">
          <mxGeometry relative="1" as="geometry">
            <mxPoint x="-490" y="69" as="sourcePoint" />
            <mxPoint x="-744" y="-11" as="targetPoint" />
          </mxGeometry>
        </mxCell>
        <mxCell id="dSZwk_qAHh2OTDDEfBdo-298" value="" style="endArrow=classic;html=1;rounded=0;entryX=1;entryY=0.5;entryDx=0;entryDy=0;exitX=0.5;exitY=1;exitDx=0;exitDy=0;dashed=1;" edge="1" parent="1" source="dSZwk_qAHh2OTDDEfBdo-292" target="dSZwk_qAHh2OTDDEfBdo-242">
          <mxGeometry width="50" height="50" relative="1" as="geometry">
            <mxPoint x="-810" y="259.27" as="sourcePoint" />
            <mxPoint x="-870" y="370" as="targetPoint" />
          </mxGeometry>
        </mxCell>
        <mxCell id="dSZwk_qAHh2OTDDEfBdo-300" value="" style="endArrow=classic;html=1;rounded=0;entryX=1;entryY=0.5;entryDx=0;entryDy=0;exitX=0.25;exitY=1;exitDx=0;exitDy=0;dashed=1;" edge="1" parent="1" source="dSZwk_qAHh2OTDDEfBdo-286" target="dSZwk_qAHh2OTDDEfBdo-243">
          <mxGeometry width="50" height="50" relative="1" as="geometry">
            <mxPoint x="-850" y="390" as="sourcePoint" />
            <mxPoint x="-800" y="340" as="targetPoint" />
          </mxGeometry>
        </mxCell>
        <mxCell id="dSZwk_qAHh2OTDDEfBdo-301" value="" style="endArrow=classic;html=1;rounded=0;exitX=0.375;exitY=0.176;exitDx=0;exitDy=0;exitPerimeter=0;entryX=0;entryY=1;entryDx=0;entryDy=0;dashed=1;" edge="1" parent="1" source="dSZwk_qAHh2OTDDEfBdo-286" target="dSZwk_qAHh2OTDDEfBdo-154">
          <mxGeometry width="50" height="50" relative="1" as="geometry">
            <mxPoint x="-790" y="-20" as="sourcePoint" />
            <mxPoint x="-740" y="-70" as="targetPoint" />
            <Array as="points">
              <mxPoint x="-730" y="-290" />
            </Array>
          </mxGeometry>
        </mxCell>
        <mxCell id="dSZwk_qAHh2OTDDEfBdo-302" value="" style="ellipse;html=1;shape=endState;fillColor=strokeColor;" vertex="1" parent="1">
          <mxGeometry x="-1013.5" y="670" width="30" height="30" as="geometry" />
        </mxCell>
      </root>
    </mxGraphModel>
  </diagram>
</mxfile>
